HIERARCHY
ROOT root
{
	OFFSET	0	13.1	24.9
	CHANNELS 6  Xposition Yposition Zposition Xrotation Yrotation Zrotation
	JOINT spine_1
	{
		OFFSET	0	9.99999	0
		CHANNELS 3  Xrotation Yrotation Zrotation
		JOINT spine_2
		{
			OFFSET	0	112	-10
			CHANNELS 3  Xrotation Yrotation Zrotation
			JOINT spine_3
			{
				OFFSET	0	206.5	19.3
				CHANNELS 3  Xrotation Yrotation Zrotation
				JOINT spine_4
				{
					OFFSET	0	110.4	14.6
					CHANNELS 3  Xrotation Yrotation Zrotation
					JOINT neck_1
					{
						OFFSET	0	71.8	-50.3
						CHANNELS 3  Xrotation Yrotation Zrotation
						JOINT neck_2
						{
							OFFSET	0	86.2	-25.8
							CHANNELS 3  Xrotation Yrotation Zrotation
							JOINT head_ee
							{
								OFFSET	0	179.8	-8.7
								CHANNELS 3  Xrotation Yrotation Zrotation
								End Site
								{
									OFFSET	1	0	0
								}
							}
						}
					}
					JOINT left_clavicle
					{
						OFFSET	-43.2	22.4	-70.8
						CHANNELS 3  Xrotation Yrotation Zrotation
						JOINT left_shoulder
						{
							OFFSET	-93.9	-5.79999	48.7
							CHANNELS 3  Xrotation Yrotation Zrotation
							JOINT left_elbow
							{
								OFFSET	-291.4	-30.8	15.2
								CHANNELS 3  Xrotation Yrotation Zrotation
								JOINT left_lowarm_twist
								{
									OFFSET	-110.7	-3.89999	13.6
									CHANNELS 3  Xrotation Yrotation Zrotation
									JOINT left_hand
									{
										OFFSET	-110.7	-3.89999	13.6
										CHANNELS 3  Xrotation Yrotation Zrotation
										JOINT left_ee
										{
											OFFSET	-80.8	-5.10001	12.1
											CHANNELS 3  Xrotation Yrotation Zrotation
											End Site
											{
												OFFSET	1	0	0
											}
										}
									}
								}
							}
						}
					}
					JOINT right_clavicle
					{
						OFFSET	43.2	22.4	-70.8
						CHANNELS 3  Xrotation Yrotation Zrotation
						JOINT right_shoulder
						{
							OFFSET	93.9	-5.79999	48.7
							CHANNELS 3  Xrotation Yrotation Zrotation
							JOINT right_elbow
							{
								OFFSET	291.4	-30.8	15.2
								CHANNELS 3  Xrotation Yrotation Zrotation
								JOINT right_lowarm_twist
								{
									OFFSET	110.7	-3.89999	13.6
									CHANNELS 3  Xrotation Yrotation Zrotation
									JOINT right_hand
									{
										OFFSET	110.7	-3.89999	13.6
										CHANNELS 3  Xrotation Yrotation Zrotation
										JOINT right_ee
										{
											OFFSET	80.8	-5.10001	12.1
											CHANNELS 3  Xrotation Yrotation Zrotation
											End Site
											{
												OFFSET	1	0	0
											}
										}
									}
								}
							}
						}
					}
				}
			}
		}
	}
	JOINT left_hip
	{
		OFFSET	-82.8	-127.5	0.300001
		CHANNELS 3  Xrotation Yrotation Zrotation
		JOINT left_knee
		{
			OFFSET	-28.2	-396.7	2.2
			CHANNELS 3  Xrotation Yrotation Zrotation
			JOINT left_ankle
			{
				OFFSET	-11.7	-411.3	35.4
				CHANNELS 3  Xrotation Yrotation Zrotation
				JOINT left_toes
				{
					OFFSET	0	-60	-88.6
					CHANNELS 3  Xrotation Yrotation Zrotation
					JOINT left_foot_ee
					{
						OFFSET	-22.5	-16.5	-42.2
						CHANNELS 3  Xrotation Yrotation Zrotation
						End Site
						{
							OFFSET	1	0	0
						}
					}
				}
			}
		}
	}
	JOINT right_hip
	{
		OFFSET	82.8	-127.5	0.300001
		CHANNELS 3  Xrotation Yrotation Zrotation
		JOINT right_knee
		{
			OFFSET	28.2	-396.7	2.2
			CHANNELS 3  Xrotation Yrotation Zrotation
			JOINT right_ankle
			{
				OFFSET	11.7	-411.3	35.4
				CHANNELS 3  Xrotation Yrotation Zrotation
				JOINT right_toes
				{
					OFFSET	0	-60	-88.6
					CHANNELS 3  Xrotation Yrotation Zrotation
					JOINT right_foot_ee
					{
						OFFSET	22.5	-16.5	-42.2
						CHANNELS 3  Xrotation Yrotation Zrotation
						End Site
						{
							OFFSET	1	0	0
						}
					}
				}
			}
		}
	}
}
MOTION
Frames: 13
Frame Time: 0.02
3574.42 741.953 -1474.73 -163.066532088 81.0754918792 169.541858832 1.5621 -0.33113 -2.94442 1.56691 -0.143181 -2.9595 1.57467 0.401803 -2.93561 1.56265 -0.0666541 -2.96221 -21.1472 8.69181 -1.76543 -21.6455 17.6198 2.26411 -0.0 0.0 -0.0 4.53138 17.7943 9.04576 -5.61119 -22.3431 76.724 2.96097 -55.704 1.56483 -11.5586 -0.547552 1.37014 -1.18712 23.2162 2.41027 -0.0 0.0 -0.0 6.7085 -9.12709 -12.8898 -5.0047 3.69022 -61.4217 0.697611 19.064 -0.117142 69.8089 2.72056 7.9343 7.95853 -4.24913 -73.8134 0.0 0.0 0.0 3.28516 -1.53998 -10.6096 -4.40109 0.156022 0.657249 24.4356 26.8683 -3.47704 -25.2706 0.0 0.0 -0.0 0.0 -0.0 25.096 15.0447 -11.9787 -35.203 0.19012 -5.31517 27.7765 -12.1115 3.66401 -26.4252 0.0 0.0 0.0 0.0 0.0 
3562.49601932 737.276 -1476.27404171 -162.63625228 81.8894430867 169.404968158 1.44824 -0.480841 -2.84752 1.4527 -0.298748 -2.87232 1.4683 0.238024 -2.87798 1.45681 -0.219294 -2.87947 -20.9716 9.52109 -2.59087 -21.5808 19.6236 1.86881 -0.0 0.0 -0.0 4.57473 17.9962 9.1113 -5.5775 -23.3642 76.0183 2.85102 -54.6888 1.47454 -12.0733 -0.578288 1.4284 -1.2165 22.0379 1.72401 -0.0 0.0 -0.0 6.6736 -9.8709 -12.8027 -5.48922 4.73176 -61.3318 0.68387 18.7148 -0.112693 67.5646 2.49165 7.75964 7.86232 -6.18498 -73.6088 0.0 0.0 0.0 3.56158 -2.18941 -12.892 -5.83172 0.195803 0.873194 26.0229 23.7768 -3.60941 -28.3751 0.0 0.0 -0.0 0.0 -0.0 25.9826 14.9848 -13.4513 -37.9068 0.339 -5.70301 28.8301 -16.5714 3.82308 -25.1341 0.0 0.0 0.0 0.0 0.0 
3562.51360161 737.276 -1476.40423338 -161.220899614 82.4846447932 167.976374482 1.44824 -0.480841 -2.84752 1.4527 -0.298748 -2.87232 1.4683 0.238024 -2.87798 1.45681 -0.219294 -2.87947 -20.9716 9.52109 -2.59087 -21.5808 19.6236 1.86881 -0.0 0.0 -0.0 4.57473 17.9962 9.1113 -5.5775 -23.3642 76.0183 2.85102 -54.6888 1.47454 -12.0733 -0.578288 1.4284 -1.2165 22.0379 1.72401 -0.0 0.0 -0.0 6.6736 -9.8709 -12.8027 -5.48922 4.73176 -61.3318 0.68387 18.7148 -0.112693 67.5646 2.49165 7.75964 7.86232 -6.18498 -73.6088 0.0 0.0 0.0 3.56158 -2.18941 -12.892 -5.83172 0.195803 0.873194 26.0229 23.7768 -3.60941 -28.3751 0.0 0.0 -0.0 0.0 -0.0 25.9826 14.9848 -13.4513 -37.9068 0.339 -5.70301 28.8301 -16.5714 3.82308 -25.1341 0.0 0.0 0.0 0.0 0.0 
3562.54677967 737.276 -1476.62526227 -158.22073432 83.4840563683 164.953702351 1.44824 -0.480841 -2.84752 1.4527 -0.298748 -2.87232 1.4683 0.238024 -2.87798 1.45681 -0.219294 -2.87947 -20.9716 9.52109 -2.59087 -21.5808 19.6236 1.86881 -0.0 0.0 -0.0 4.57473 17.9962 9.1113 -5.5775 -23.3642 76.0183 2.85102 -54.6888 1.47454 -12.0733 -0.578288 1.4284 -1.2165 22.0379 1.72401 -0.0 0.0 -0.0 6.6736 -9.8709 -12.8027 -5.48922 4.73176 -61.3318 0.68387 18.7148 -0.112693 67.5646 2.49165 7.75964 7.86232 -6.18498 -73.6088 0.0 0.0 0.0 3.56158 -2.18941 -12.892 -5.83172 0.195803 0.873194 26.0229 23.7768 -3.60941 -28.3751 0.0 0.0 -0.0 0.0 -0.0 25.9826 14.9848 -13.4513 -37.9068 0.339 -5.70301 28.8301 -16.5714 3.82308 -25.1341 0.0 0.0 0.0 0.0 0.0 
3562.57378994 737.276 -1476.78734959 -155.359185445 84.2039593313 162.075620737 1.44824 -0.480841 -2.84752 1.4527 -0.298748 -2.87232 1.4683 0.238024 -2.87798 1.45681 -0.219294 -2.87947 -20.9716 9.52109 -2.59087 -21.5808 19.6236 1.86881 -0.0 0.0 -0.0 4.57473 17.9962 9.1113 -5.5775 -23.3642 76.0183 2.85102 -54.6888 1.47454 -12.0733 -0.578288 1.4284 -1.2165 22.0379 1.72401 -0.0 0.0 -0.0 6.6736 -9.8709 -12.8027 -5.48922 4.73176 -61.3318 0.68387 18.7148 -0.112693 67.5646 2.49165 7.75964 7.86232 -6.18498 -73.6088 0.0 0.0 0.0 3.56158 -2.18941 -12.892 -5.83172 0.195803 0.873194 26.0229 23.7768 -3.60941 -28.3751 0.0 0.0 -0.0 0.0 -0.0 25.9826 14.9848 -13.4513 -37.9068 0.339 -5.70301 28.8301 -16.5714 3.82308 -25.1341 0.0 0.0 0.0 0.0 0.0 
3562.62201731 737.276 -1477.04796989 -148.915199673 85.3223560965 155.604989273 1.44824 -0.480841 -2.84752 1.4527 -0.298748 -2.87232 1.4683 0.238024 -2.87798 1.45681 -0.219294 -2.87947 -20.9716 9.52109 -2.59087 -21.5808 19.6236 1.86881 -0.0 0.0 -0.0 4.57473 17.9962 9.1113 -5.5775 -23.3642 76.0183 2.85102 -54.6888 1.47454 -12.0733 -0.578288 1.4284 -1.2165 22.0379 1.72401 -0.0 0.0 -0.0 6.6736 -9.8709 -12.8027 -5.48922 4.73176 -61.3318 0.68387 18.7148 -0.112693 67.5646 2.49165 7.75964 7.86232 -6.18498 -73.6088 0.0 0.0 0.0 3.56158 -2.18941 -12.892 -5.83172 0.195803 0.873194 26.0229 23.7768 -3.60941 -28.3751 0.0 0.0 -0.0 0.0 -0.0 25.9826 14.9848 -13.4513 -37.9068 0.339 -5.70301 28.8301 -16.5714 3.82308 -25.1341 0.0 0.0 0.0 0.0 0.0 
3562.67185784 737.276 -1477.2886199 -139.5894891 86.2760076326 146.25459064 1.44824 -0.480841 -2.84752 1.4527 -0.298748 -2.87232 1.4683 0.238024 -2.87798 1.45681 -0.219294 -2.87947 -20.9716 9.52109 -2.59087 -21.5808 19.6236 1.86881 -0.0 0.0 -0.0 4.57473 17.9962 9.1113 -5.5775 -23.3642 76.0183 2.85102 -54.6888 1.47454 -12.0733 -0.578288 1.4284 -1.2165 22.0379 1.72401 -0.0 0.0 -0.0 6.6736 -9.8709 -12.8027 -5.48922 4.73176 -61.3318 0.68387 18.7148 -0.112693 67.5646 2.49165 7.75964 7.86232 -6.18498 -73.6088 0.0 0.0 0.0 3.56158 -2.18941 -12.892 -5.83172 0.195803 0.873194 26.0229 23.7768 -3.60941 -28.3751 0.0 0.0 -0.0 0.0 -0.0 25.9826 14.9848 -13.4513 -37.9068 0.339 -5.70301 28.8301 -16.5714 3.82308 -25.1341 0.0 0.0 0.0 0.0 0.0 
3562.76486329 737.276 -1477.68350104 -110.522632628 87.4232346189 117.14700374 1.44824 -0.480841 -2.84752 1.4527 -0.298748 -2.87232 1.4683 0.238024 -2.87798 1.45681 -0.219294 -2.87947 -20.9716 9.52109 -2.59087 -21.5808 19.6236 1.86881 -0.0 0.0 -0.0 4.57473 17.9962 9.1113 -5.5775 -23.3642 76.0183 2.85102 -54.6888 1.47454 -12.0733 -0.578288 1.4284 -1.2165 22.0379 1.72401 -0.0 0.0 -0.0 6.6736 -9.8709 -12.8027 -5.48922 4.73176 -61.3318 0.68387 18.7148 -0.112693 67.5646 2.49165 7.75964 7.86232 -6.18498 -73.6088 0.0 0.0 0.0 3.56158 -2.18941 -12.892 -5.83172 0.195803 0.873194 26.0229 23.7768 -3.60941 -28.3751 0.0 0.0 -0.0 0.0 -0.0 25.9826 14.9848 -13.4513 -37.9068 0.339 -5.70301 28.8301 -16.5714 3.82308 -25.1341 0.0 0.0 0.0 0.0 0.0 
3562.88940272 737.276 -1478.13744867 -60.9845648018 87.2402771575 67.5616872662 1.44824 -0.480841 -2.84752 1.4527 -0.298748 -2.87232 1.4683 0.238024 -2.87798 1.45681 -0.219294 -2.87947 -20.9716 9.52109 -2.59087 -21.5808 19.6236 1.86881 -0.0 0.0 -0.0 4.57473 17.9962 9.1113 -5.5775 -23.3642 76.0183 2.85102 -54.6888 1.47454 -12.0733 -0.578288 1.4284 -1.2165 22.0379 1.72401 -0.0 0.0 -0.0 6.6736 -9.8709 -12.8027 -5.48922 4.73176 -61.3318 0.68387 18.7148 -0.112693 67.5646 2.49165 7.75964 7.86232 -6.18498 -73.6088 0.0 0.0 0.0 3.56158 -2.18941 -12.892 -5.83172 0.195803 0.873194 26.0229 23.7768 -3.60941 -28.3751 0.0 0.0 -0.0 0.0 -0.0 25.9826 14.9848 -13.4513 -37.9068 0.339 -5.70301 28.8301 -16.5714 3.82308 -25.1341 0.0 0.0 0.0 0.0 0.0 
3537.04271788 702.969 -1490.93233266 -42.5913964911 86.8550471911 49.343629334 1.04821 -0.378991 -2.49212 1.05164 -0.219695 -2.51117 1.0621 0.266683 -2.50662 1.05335 -0.132408 -2.51728 -19.7962 3.1669 -1.72983 -19.8577 6.98892 -0.294961 -0.0 0.0 -0.0 5.90146 21.1495 11.0202 -5.61058 -25.3896 73.371 2.58265 -51.9789 1.25922 -21.1367 -1.20289 2.40484 -0.179161 15.2324 5.11816 -0.0 0.0 -0.0 9.86988 4.42671 -19.5336 -12.1401 1.49663 -57.6195 0.272002 7.6741 -0.0182431 50.5531 1.00869 6.17186 5.75969 -27.4892 -49.5594 0.0 0.0 0.0 12.1603 -5.14454 -15.6624 -30.1225 0.0393531 4.56966 42.5148 16.1375 -5.17122 -22.9944 0.0 0.0 -0.0 0.0 -0.0 25.5046 -0.373918 -10.6485 -47.8798 1.04257 -7.06392 41.4453 -18.414 5.12368 -17.0806 0.0 0.0 0.0 0.0 0.0 
3538.54837625 702.969 -1494.03811776 -16.572404237 82.5204042223 23.2342921385 1.04821 -0.378991 -2.49212 1.05164 -0.219695 -2.51117 1.0621 0.266683 -2.50662 1.05335 -0.132408 -2.51728 -19.7962 3.1669 -1.72983 -19.8577 6.98892 -0.294961 -0.0 0.0 -0.0 5.90146 21.1495 11.0202 -5.61058 -25.3896 73.371 2.58265 -51.9789 1.25922 -21.1367 -1.20289 2.40484 -0.179161 15.2324 5.11816 -0.0 0.0 -0.0 9.86988 4.42671 -19.5336 -12.1401 1.49663 -57.6195 0.272002 7.6741 -0.0182431 50.5531 1.00869 6.17186 5.75969 -27.4892 -49.5594 0.0 0.0 0.0 12.1603 -5.14454 -15.6624 -30.1225 0.0393531 4.56966 42.5148 16.1375 -5.17122 -22.9944 0.0 0.0 -0.0 0.0 -0.0 25.5046 -0.373918 -10.6485 -47.8798 1.04257 -7.06392 41.4453 -18.414 5.12368 -17.0806 0.0 0.0 0.0 0.0 0.0 
3534.25864037 695.047 -1507.25491748 -7.88805345681 82.3096224071 14.385088154 0.652785 -0.484565 -2.48662 0.656166 -0.325404 -2.5124 0.671735 0.180307 -2.52695 0.662893 -0.22091 -2.52372 -20.4246 4.81405 -1.98597 -20.5731 10.2762 0.21515 -0.0 0.0 -0.0 6.48527 18.6682 12.0565 -4.99892 -20.9259 72.9635 2.35662 -49.4093 1.08428 -22.2246 -1.28807 2.51514 -1.13433 19.7183 1.18817 -0.0 0.0 -0.0 10.4749 8.44198 -20.8819 -13.337 -1.0872 -58.8438 0.396069 11.1007 -0.0384885 49.045 0.901296 6.01139 5.43024 -31.8631 -46.4278 0.0 0.0 0.0 13.3505 -5.18044 -16.5427 -35.7483 -0.218664 5.39393 41.5285 6.75754 -4.99047 -15.6499 0.0 0.0 -0.0 0.0 -0.0 25.7533 3.80787 -12.1034 -51.6696 1.37066 -7.54642 38.4273 -17.7533 4.83442 -14.1032 0.0 0.0 0.0 0.0 0.0 
3527.46344369 692.249 -1512.69100656 -8.60790783633 81.4930435028 15.5146384272 0.673385 -0.393055 -2.57072 0.677032 -0.228733 -2.5905 0.688632 0.289917 -2.58438 0.679332 -0.121734 -2.59773 -19.5121 4.10021 -3.70444 -19.6098 9.81315 -1.76179 -0.0 0.0 -0.0 6.69717 17.8395 12.4436 -6.15611 -20.1599 72.5237 2.154 -46.8513 0.933351 -23.5399 -1.39384 2.64633 -1.09294 19.0246 1.13122 -0.0 0.0 -0.0 11.3406 11.4657 -22.7851 -12.6338 -0.809814 -58.4252 0.324178 9.12332 -0.0258645 46.3393 0.719377 5.71668 4.828 -31.5387 -41.6436 0.0 0.0 0.0 14.5214 -5.67134 -17.6725 -37.5642 -0.319118 5.65425 41.0937 2.21557 -4.95622 -12.8216 0.0 0.0 -0.0 0.0 -0.0 24.8818 2.54593 -12.2059 -51.2967 1.33697 -7.49992 39.5729 -17.2528 4.93175 -9.90492 0.0 0.0 0.0 0.0 0.0 
